<svg width="400" height="400" viewBox="0 0 124 124" xmlns="http://www.w3.org/2000/svg"><defs><radialGradient id="a"><stop offset="25%" stop-color="#7c65c1"/><stop offset="100%" stop-color="#4c3591"/></radialGradient></defs><path fill="url(#a)" d="M0 0h124v124H0z"/><path d="M80.66 41.36 78.2 61.866q-.157 1.133-.235 2.188-.04 1.015-.04 1.914 0 2.93 2.423 2.93 3.398 0 6.172-4.805 2.734-4.727 2.734-10.781 0-9.61-6.719-15.743-6.68-6.21-17.07-6.21-10.86 0-18.281 7.421Q39.8 46.164 39.8 57.063q0 6.015 2.656 11.796 2.695 5.43 7.54 8.946 6.483 4.687 16.25 4.687 9.14 0 19.14-4.648l.586-.313 2.03 5.625-.468.235q-10.195 4.921-21.25 4.921-12.226 0-20.469-5.898-6.054-4.297-9.453-10.976-3.36-7.032-3.36-14.297 0-13.243 9.337-22.227t23.047-8.984q12.617 0 21.133 7.734 8.476 7.656 8.476 19.18 0 8.906-4.61 15.273-4.648 6.445-10.898 6.445-5 0-6.797-4.726-4.804 4.922-10.703 4.922-6.445 0-10.742-4.649-4.219-4.609-4.219-11.757 0-7.696 4.727-12.657 4.726-5.078 11.875-5.078 6.562 0 10.586 5.078l.547-4.336zm-7.969 15.078q0-3.633-2.46-6.055-2.54-2.422-6.172-2.422-3.946 0-6.446 3.047-2.539 3.008-2.539 7.695 0 4.063 2.031 6.68T62.34 68q4.101 0 7.226-3.477t3.125-8.085" transform="translate(2 8)" style="fill:#000"/><path d="M80.66 41.36 78.2 61.866q-.157 1.133-.235 2.188-.04 1.015-.04 1.914 0 2.93 2.423 2.93 3.398 0 6.172-4.805 2.734-4.727 2.734-10.781 0-9.61-6.719-15.743-6.68-6.21-17.07-6.21-10.86 0-18.281 7.421Q39.8 46.164 39.8 57.063q0 6.015 2.656 11.796 2.695 5.43 7.54 8.946 6.483 4.687 16.25 4.687 9.14 0 19.14-4.648l.586-.313 2.03 5.625-.468.235q-10.195 4.921-21.25 4.921-12.226 0-20.469-5.898-6.054-4.297-9.453-10.976-3.36-7.032-3.36-14.297 0-13.243 9.337-22.227t23.047-8.984q12.617 0 21.133 7.734 8.476 7.656 8.476 19.18 0 8.906-4.61 15.273-4.648 6.445-10.898 6.445-5 0-6.797-4.726-4.804 4.922-10.703 4.922-6.445 0-10.742-4.649-4.219-4.609-4.219-11.757 0-7.696 4.727-12.657 4.726-5.078 11.875-5.078 6.562 0 10.586 5.078l.547-4.336zm-7.969 15.078q0-3.633-2.46-6.055-2.54-2.422-6.172-2.422-3.946 0-6.446 3.047-2.539 3.008-2.539 7.695 0 4.063 2.031 6.68T62.34 68q4.101 0 7.226-3.477t3.125-8.085" transform="translate(0 6)" style="fill:#fff"/></svg>